<?xml version="1.0" encoding="UTF-8" standalone="no"?>
<svg
   width="16"
   height="16"
   version="1.1"
   id="svg134"
   sodipodi:docname="FlyCamera.svg"
   inkscape:version="1.2.2 (732a01da63, 2022-12-09)"
   xmlns:inkscape="http://www.inkscape.org/namespaces/inkscape"
   xmlns:sodipodi="http://sodipodi.sourceforge.net/DTD/sodipodi-0.dtd"
   xmlns="http://www.w3.org/2000/svg"
   xmlns:svg="http://www.w3.org/2000/svg">
  <defs
     id="defs138" />
  <sodipodi:namedview
     id="namedview136"
     pagecolor="#ffffff"
     bordercolor="#666666"
     borderopacity="1.0"
     inkscape:showpageshadow="2"
     inkscape:pageopacity="0.0"
     inkscape:pagecheckerboard="0"
     inkscape:deskcolor="#d1d1d1"
     showgrid="true"
     inkscape:zoom="45.254834"
     inkscape:cx="4.1542523"
     inkscape:cy="11.192175"
     inkscape:window-width="1920"
     inkscape:window-height="1019"
     inkscape:window-x="-9"
     inkscape:window-y="-9"
     inkscape:window-maximized="1"
     inkscape:current-layer="layer2">
    <inkscape:grid
       type="xygrid"
       id="grid308" />
  </sodipodi:namedview>
  <path
     fill="#fc7f7f"
     d="M 9,3 C 7.4264646,2.9956472 6.1169606,4.2078114 6,5.777 1.7279276,2.6406464 -1.0828038,8.3293517 3,9.824 V 12 c 0,0.552285 0.4477153,1 1,1 h 6 c 0.552285,0 1,-0.447715 1,-1 v -1 l 3,2 V 7 L 11,9 V 8.23 C 13.041371,6.3929964 11.746223,3.0061837 9,3 Z"
     id="path132"
     sodipodi:nodetypes="cccsssscccccc"
     style="display:none" />
  <rect
     style="display:none;fill:#fc7f7f;fill-opacity:1;stroke:none;stroke-width:2.019;stroke-linecap:round;stroke-linejoin:round;stroke-opacity:1"
     id="rect1361"
     width="9"
     height="6"
     x="2"
     y="5"
     ry="1"
     rx="1" />
  <path
     style="display:none;fill:#fc7f7f;fill-opacity:1;fill-rule:evenodd;stroke:none;stroke-width:1px;stroke-linecap:butt;stroke-linejoin:miter;stroke-opacity:1"
     d="m 11,7 3,-2 v 6 L 11,9 Z"
     id="path1417"
     sodipodi:nodetypes="ccccc" />
  <path
     style="display:none;fill:#fc7f7f;fill-opacity:1;fill-rule:evenodd;stroke:none;stroke-width:1px;stroke-linecap:butt;stroke-linejoin:miter;stroke-opacity:1"
     d="M 3,2 H 1 L 3,7 5,8 8,6 Z"
     id="path1493"
     sodipodi:nodetypes="cccccc" />
  <path
     style="display:none;fill:#fc7f7f;fill-opacity:1;fill-rule:evenodd;stroke:none;stroke-width:1px;stroke-linecap:butt;stroke-linejoin:miter;stroke-opacity:1"
     d="M 3,2 H 2 L 3,7 6,8 H 9 L 7,5 Z"
     id="path14059"
     sodipodi:nodetypes="ccccccc" />
  <path
     style="display:none;fill:#fc7f7f;fill-opacity:1;fill-rule:evenodd;stroke:none;stroke-width:1px;stroke-linecap:butt;stroke-linejoin:miter;stroke-opacity:1"
     d="M 3,14 H 6 L 13,8 H 6 Z"
     id="path1495"
     sodipodi:nodetypes="ccccc" />
  <path
     style="display:none;fill:#fc7f7f;fill-opacity:1;fill-rule:evenodd;stroke:none;stroke-width:1px;stroke-linecap:butt;stroke-linejoin:miter;stroke-opacity:1"
     d="M 3,4 6,5 H 8 L 11,4 V 2 h 2 V 1 H 8 v 1 h 2 V 3 L 8,4 H 6 L 4,3 V 2 H 6 V 1 H 1 v 1 h 2 z"
     id="path8031" />
  <g
     inkscape:groupmode="layer"
     id="layer1"
     inkscape:label="Layer 1"
     style="display:inline">
    <path
       fill="#fc7f7f"
       d="M 9,1 C 7.4264646,0.9956472 6.1169606,2.2078114 6,3.777 4.5977191,2.4868047 2.3635782,2.8138546 1.3899388,4.4518407 0.41629934,6.0898267 1.1965659,8.208678 3,8.824 V 10 c 0,0.552285 0.4477153,1 1,1 h 6 c 0.552285,0 1,-0.447715 1,-1 V 9 l 3,2 V 5 L 11,7 V 6.23 C 13.041371,4.3929964 11.746223,1.0061837 9,1 Z"
       id="path8035"
       sodipodi:nodetypes="ccscsssscccccc"
       style="display:none" />
    <path
       style="display:none;fill:#fc7f7f;fill-opacity:1;fill-rule:evenodd;stroke:none;stroke-width:1px;stroke-linecap:butt;stroke-linejoin:miter;stroke-opacity:1"
       d="m 4,13 v 1 H 3 L 2,13 v 1 l 1,1 h 4 4 l 1,-1 v -1 l -1,1 H 10 V 13 H 9 v 1 H 5 v -1 z"
       id="path8199"
       sodipodi:nodetypes="cccccccccccccccccc" />
    <path
       style="display:none;fill:#fc7f7f;fill-opacity:1;fill-rule:evenodd;stroke:none;stroke-width:1px;stroke-linecap:butt;stroke-linejoin:miter;stroke-opacity:1"
       d="m 7,1 h 5 V 2 H 10 V 6 H 9 V 2 H 7 Z"
       id="path8215"
       sodipodi:nodetypes="ccccccccc" />
    <path
       style="display:none;fill:#fc7f7f;fill-opacity:1;fill-rule:evenodd;stroke:none;stroke-width:1px;stroke-linecap:butt;stroke-linejoin:miter;stroke-opacity:1"
       d="M 1,1 H 6 V 2 H 4 V 6 H 3 V 2 H 1 Z"
       id="path8033"
       sodipodi:nodetypes="ccccccccc" />
    <path
       style="display:none;fill:#fc7f7f;fill-opacity:1;fill-rule:evenodd;stroke:none;stroke-width:1px;stroke-linecap:butt;stroke-linejoin:miter;stroke-opacity:1"
       d="m 4,12 v 3 h 1 v -3 z"
       id="path13303" />
    <path
       style="display:none;fill:#fc7f7f;fill-opacity:1;fill-rule:evenodd;stroke:none;stroke-width:0.816497px;stroke-linecap:butt;stroke-linejoin:miter;stroke-opacity:1"
       d="m 13,12 v 2 h 1 v -2 z"
       id="path13305" />
    <path
       style="display:none;fill:#fc7f7f;fill-opacity:1;fill-rule:evenodd;stroke:none;stroke-width:1px;stroke-linecap:butt;stroke-linejoin:miter;stroke-opacity:1"
       d="m 10,12 v 3 h 1 v -3 z"
       id="path13307" />
    <path
       style="display:none;fill:#fc7f7f;fill-opacity:1;fill-rule:evenodd;stroke:none;stroke-width:1.29099px;stroke-linecap:butt;stroke-linejoin:miter;stroke-opacity:1"
       d="m 1,9 v 5 H 2 V 9 Z"
       id="path13309" />
    <path
       style="display:none;fill:#fc7f7f;fill-opacity:1;fill-rule:evenodd;stroke:none;stroke-width:0.816497px;stroke-linecap:butt;stroke-linejoin:miter;stroke-opacity:1"
       d="m 7,12 v 2 h 1 v -2 z"
       id="path13311" />
  </g>
  <circle
     style="display:none;fill:#fc7f7f;fill-opacity:1;stroke:none;stroke-width:2.019;stroke-linecap:round;stroke-linejoin:round;stroke-opacity:1"
     id="path14114"
     cx="9.0266571"
     cy="4"
     r="2.9733424" />
  <path
     style="display:none;fill:#fc7f7f;fill-opacity:1;fill-rule:evenodd;stroke:none;stroke-width:1px;stroke-linecap:butt;stroke-linejoin:miter;stroke-opacity:1"
     d="m 3,2 h 3 l 7,6 H 6 Z"
     id="path14219"
     sodipodi:nodetypes="ccccc" />
  <path
     style="display:none;fill:#fc7f7f;fill-opacity:1;fill-rule:evenodd;stroke:none;stroke-width:1px;stroke-linecap:butt;stroke-linejoin:miter;stroke-opacity:1"
     d="m 3,2 h 3 l 7,6 H 6 Z"
     id="path14396"
     sodipodi:nodetypes="ccccc" />
  <g
     inkscape:groupmode="layer"
     id="layer2"
     inkscape:label="Layer 2">
    <rect
       style="display:none;fill:#fc7f7f;fill-opacity:1;stroke:none;stroke-width:2.019;stroke-linecap:round;stroke-linejoin:round;stroke-opacity:1"
       id="rect14398"
       width="9"
       height="6"
       x="3.954556"
       y="1.8463227"
       ry="1"
       rx="1"
       transform="rotate(15)" />
    <path
       style="display:none;fill:#fc7f7f;fill-opacity:1;fill-rule:evenodd;stroke:none;stroke-width:1px;stroke-linecap:butt;stroke-linejoin:miter;stroke-opacity:1"
       d="M 11.517639,7.0681483 14.933054,5.9127538 13.38014,11.708309 11,9 Z"
       id="path14400"
       sodipodi:nodetypes="ccccc" />
    <path
       style="fill:#fc7f7f;fill-opacity:1;fill-rule:evenodd;stroke:none;stroke-width:1px;stroke-linecap:butt;stroke-linejoin:miter;stroke-opacity:1"
       d="m 3,10 -2,2 c -0.003906,0.519531 0.4687424,0.996094 1,1 L 4,11 C 4,10.46875 3.5117188,10.003906 3,10 Z"
       id="path14405"
       sodipodi:nodetypes="ccccc" />
    <path
       style="fill:#fc7f7f;fill-opacity:1;fill-rule:evenodd;stroke:none;stroke-width:1px;stroke-linecap:butt;stroke-linejoin:miter;stroke-opacity:1"
       d="m 7,11 -3,3 c 0,0.558594 0.4648437,1 1,1 L 8,12 C 7.9921875,11.449219 7.5195312,11 7,11 Z"
       id="path14407"
       sodipodi:nodetypes="ccccc" />
    <path
       style="fill:#fc7f7f;fill-opacity:1;fill-rule:evenodd;stroke:none;stroke-width:1px;stroke-linecap:butt;stroke-linejoin:miter;stroke-opacity:1"
       d="m 11,12 -2,2 c 0,0.527344 0.5195313,1.003906 1,1 l 2,-2 c 0,-0.515625 -0.476562,-1 -1,-1 z"
       id="path14411"
       sodipodi:nodetypes="ccccc" />
    <path
       fill="#fc7f7f"
       d="M 11.138701,0.75495528 C 9.6199087,0.34348987 8.0412937,1.175426 7.5221826,2.6608742 6.5016104,1.0517042 4.2589492,0.78937193 2.8945438,2.1195486 1.5301383,3.4497251 1.7354189,5.6983262 3.3181454,6.7594447 L 3.0137742,7.8953734 C 2.8708323,8.4288398 3.1874149,8.9771765 3.720881,9.1201183 l 5.7955549,1.5529137 c 0.5334661,0.142942 1.0818031,-0.17364 1.2247451,-0.7071062 L 11,9 13.380139,11.708309 14.933053,5.9127538 11.517638,7.0681483 11.716929,6.3243854 C 14.164193,5.0783219 13.789747,1.4717031 11.138701,0.75495528 Z"
       id="path14413"
       sodipodi:nodetypes="ccscsssscccccc"
       style="display:inline" />
  </g>
</svg>
